<svg width="18" height="18" viewBox="0 0 23 24" fill="none" xmlns="http://www.w3.org/2000/svg">
    <path
            d="M13.4688 23.0808H9.21941C8.93612 23.0808 8.6906 22.9864 8.48285 22.7975C8.2751 22.6087 8.15234 22.3726 8.11456 22.0893L7.77461 19.4546C7.52909 19.3602 7.29792 19.2469 7.0811 19.1147C6.86353 18.9825 6.65087 18.8408 6.44312 18.6897L3.97846 19.7096C3.71405 19.804 3.44964 19.8135 3.18524 19.7379C2.92083 19.6624 2.71308 19.5019 2.56199 19.2563L0.465607 15.6018C0.314517 15.3563 0.267301 15.0919 0.32396 14.8086C0.380619 14.5253 0.522266 14.2987 0.748902 14.1287L2.87361 12.5139C2.85473 12.3817 2.84528 12.254 2.84528 12.1309V11.366C2.84528 11.2436 2.85473 11.1163 2.87361 10.9841L0.748902 9.36935C0.522266 9.19937 0.380619 8.97274 0.32396 8.68944C0.267301 8.40615 0.314517 8.14174 0.465607 7.89622L2.56199 4.24171C2.69419 3.97731 2.89703 3.81186 3.17051 3.74538C3.44473 3.67966 3.71405 3.69401 3.97846 3.78844L6.44312 4.8083C6.65087 4.65721 6.86807 4.51557 7.0947 4.38336C7.32134 4.25116 7.54797 4.13784 7.77461 4.04341L8.11456 1.40877C8.15234 1.12547 8.2751 0.889394 8.48285 0.700531C8.6906 0.511668 8.93612 0.417236 9.21941 0.417236H13.4688C13.7521 0.417236 13.9976 0.511668 14.2054 0.700531C14.4131 0.889394 14.5359 1.12547 14.5737 1.40877L14.9136 4.04341C15.1592 4.13784 15.3907 4.25116 15.6083 4.38336C15.8251 4.51557 16.0374 4.65721 16.2451 4.8083L18.7098 3.78844C18.9742 3.69401 19.2386 3.68457 19.503 3.76011C19.7674 3.83566 19.9752 3.99619 20.1263 4.24171L22.2226 7.89622C22.3737 8.14174 22.4209 8.40615 22.3643 8.68944C22.3076 8.97274 22.166 9.19937 21.9393 9.36935L19.8146 10.9841C19.8335 11.1163 19.843 11.2436 19.843 11.366V12.1309C19.843 12.254 19.8241 12.3817 19.7863 12.5139L21.911 14.1287C22.1377 14.2987 22.2793 14.5253 22.336 14.8086C22.3926 15.0919 22.3454 15.3563 22.1943 15.6018L20.0979 19.228C19.9468 19.4735 19.7346 19.639 19.4611 19.7243C19.1869 19.8089 18.9175 19.804 18.6531 19.7096L16.2451 18.6897C16.0374 18.8408 15.8202 18.9825 15.5935 19.1147C15.3669 19.2469 15.1403 19.3602 14.9136 19.4546L14.5737 22.0893C14.5359 22.3726 14.4131 22.6087 14.2054 22.7975C13.9976 22.9864 13.7521 23.0808 13.4688 23.0808V23.0808ZM11.4008 15.7151C12.4962 15.7151 13.4311 15.328 14.2054 14.5536C14.9797 13.7793 15.3669 12.8444 15.3669 11.749C15.3669 10.6536 14.9797 9.71874 14.2054 8.94441C13.4311 8.17007 12.4962 7.7829 11.4008 7.7829C10.2865 7.7829 9.34671 8.17007 8.58143 8.94441C7.81692 9.71874 7.43466 10.6536 7.43466 11.749C7.43466 12.8444 7.81692 13.7793 8.58143 14.5536C9.34671 15.328 10.2865 15.7151 11.4008 15.7151Z"
            fill="white" fill-opacity="0.5"/>
</svg>