<svg width="18" height="18" viewBox="0 0 31 26" fill="none" xmlns="http://www.w3.org/2000/svg">
    <path
            d="M10.948 0.154783C9.70996 0.394721 8.62544 0.970572 7.69448 1.90153C6.95548 2.64054 6.52359 3.32196 6.16848 4.3105C5.94774 4.92474 5.91895 5.15508 5.91895 6.2588C5.91895 7.36251 5.94774 7.59285 6.16848 8.20709C6.8499 10.117 8.22235 11.4606 10.1706 12.1325C10.7849 12.3436 11.0728 12.3916 12.0038 12.3916C12.8004 12.3916 13.2706 12.3436 13.6833 12.2188C15.7276 11.6046 17.4072 9.93464 18.0118 7.89037C18.2421 7.09378 18.2517 5.40462 18.0118 4.62722C17.2248 1.98791 14.9982 0.212368 12.3397 0.116393C11.8118 0.0971985 11.188 0.116393 10.948 0.154783Z"
            fill="white" fill-opacity="0.5"/>
    <path
            d="M23.0022 7.948C22.7815 8.12075 22.7527 8.20713 22.7527 8.76378V9.37802L22.2536 9.62756C21.9753 9.76192 21.6106 9.98267 21.4378 10.1074L21.1403 10.3378L20.5836 10.0403C20.027 9.75233 19.7103 9.73313 19.4223 9.97307C19.3552 10.0211 19.1056 10.405 18.8657 10.8177C18.2514 11.9022 18.2802 12.2189 19.0768 12.7084L19.5375 12.9963L19.5279 13.9272V14.8582L19.192 15.0501C18.2802 15.6068 18.2226 15.9139 18.8753 17.0272C19.1152 17.4399 19.3839 17.8334 19.4703 17.9006C19.7103 18.083 20.1421 18.035 20.6508 17.7662L21.1211 17.5071L21.4762 17.7566C21.6777 17.891 22.0425 18.1022 22.3016 18.2173L22.7527 18.4381V19.0331C22.7527 19.9353 22.9062 20.0696 23.9428 20.1176C24.4034 20.1272 24.9313 20.1176 25.1137 20.0792C25.5647 20.0025 25.8239 19.5802 25.8239 18.9083V18.3997L26.3229 18.1501C26.6013 18.0062 26.9468 17.8046 27.1003 17.6991L27.3691 17.4975L27.8297 17.7566C28.6839 18.2365 28.9431 18.1405 29.5669 17.104C30.1523 16.1251 30.2003 15.7604 29.7492 15.3861C29.5861 15.2421 29.3366 15.0693 29.1926 15.0022C28.9431 14.8678 28.9431 14.8486 28.9527 13.9272L28.9623 12.9771L29.3366 12.7659C30.1236 12.3149 30.2291 11.883 29.7397 11.0192C29.0102 9.71394 28.7799 9.58917 27.9161 10.0403L27.3595 10.3378L26.9852 10.069C26.7836 9.92508 26.4477 9.72353 26.2366 9.62756L25.8431 9.4548L25.8047 8.83097C25.7663 8.28391 25.7279 8.16874 25.4976 7.97679C25.2576 7.76564 25.152 7.74645 24.2499 7.74645C23.3957 7.74645 23.2229 7.77524 23.0022 7.948ZM24.9025 11.9885C25.4496 12.1517 26.0446 12.7755 26.1982 13.3418C26.4573 14.2536 26.0734 15.2133 25.2672 15.6836C24.9025 15.8947 24.701 15.9523 24.2403 15.9523C23.6068 15.9427 23.2421 15.7892 22.8103 15.3669C22.3784 14.935 22.2344 14.5703 22.2344 13.9368C22.2344 12.4876 23.4917 11.5663 24.9025 11.9885Z"
            fill="white" fill-opacity="0.5"/>
    <path
            d="M4.76706 13.764C3.8361 14.0423 2.99152 14.743 2.57883 15.5684C2.45406 15.8179 1.61908 18.342 0.592148 21.5956C0.141065 23.016 0.208248 23.7934 0.832086 24.5228C1.02404 24.7532 1.35995 25.0315 1.58069 25.1467L1.97419 25.3578L11.8404 25.3866C18.2995 25.3962 21.841 25.377 22.0714 25.3098C22.9543 25.0699 23.6837 24.2061 23.7797 23.2656C23.8469 22.5649 23.4822 21.2789 23.2135 21.2789C22.9447 21.2789 22.3593 20.9526 22.0618 20.6358C21.7642 20.3287 21.5051 19.7625 21.5051 19.417C21.5051 19.081 21.1404 18.8603 20.8333 19.0235C20.1711 19.369 19.2881 19.2634 18.7026 18.7739C18.3283 18.4764 17.5317 17.1903 17.311 16.5473C17.0615 15.8371 17.359 14.9061 18.002 14.3975C18.242 14.2055 18.3379 14.0519 18.3379 13.86C18.3379 13.5337 18.1652 13.5241 17.2342 13.7928C16.8599 13.908 16.1977 14.0999 15.7466 14.2343C14.7773 14.5126 13.0497 14.7526 12.0228 14.7526C10.5352 14.7526 9.01876 14.4934 7.28161 13.9272C6.13951 13.5625 5.53486 13.5241 4.76706 13.764Z"
            fill="white" fill-opacity="0.5"/>
</svg>