<svg width="23" height="20" viewBox="0 0 23 20" fill="none" xmlns="http://www.w3.org/2000/svg">
<path d="M16.5038 0C14.5265 0 12.7717 0.792162 11.5828 2.15372C10.3939 0.792162 8.63903 0 6.66176 0C4.93962 0.00211486 3.28862 0.697414 2.07088 1.93339C0.85314 3.16936 0.168099 4.8451 0.166016 6.59303C0.166016 13.8194 10.5799 19.5933 11.0228 19.836C11.1949 19.9301 11.3873 19.9793 11.5828 19.9793C11.7783 19.9793 11.9707 19.9301 12.1428 19.836C12.5857 19.5933 22.9996 13.8194 22.9996 6.59303C22.9975 4.8451 22.3124 3.16936 21.0947 1.93339C19.877 0.697414 18.2259 0.00211486 16.5038 0ZM15.9635 14.221C14.5927 15.4015 13.1274 16.4641 11.5828 17.3976C10.0381 16.4641 8.57282 15.4015 7.20209 14.221C5.06932 12.3639 2.52811 9.53192 2.52811 6.59303C2.52811 5.48029 2.96362 4.41314 3.73883 3.62632C4.51404 2.8395 5.56545 2.39746 6.66176 2.39746C8.41365 2.39746 9.88011 3.33647 10.4893 4.84887C10.578 5.06935 10.7294 5.25802 10.9241 5.39083C11.1189 5.52364 11.3482 5.59456 11.5828 5.59456C11.8174 5.59456 12.0467 5.52364 12.2415 5.39083C12.4362 5.25802 12.5876 5.06935 12.6762 4.84887C13.2855 3.33647 14.7519 2.39746 16.5038 2.39746C17.6001 2.39746 18.6515 2.8395 19.4267 3.62632C20.202 4.41314 20.6375 5.48029 20.6375 6.59303C20.6375 9.53192 18.0963 12.3639 15.9635 14.221Z" 
fill="#4472c4"/>
</svg>
