<svg width="82" height="66" viewBox="0 0 82 66" fill="none" xmlns="http://www.w3.org/2000/svg">
    <rect x="25.3496" y="65.8796" width="6.53817" height="5.60306" transform="rotate(-180 25.3496 65.8796)" fill="white"
        fill-opacity="0.8" />
    <rect x="6.53809" y="65.8796" width="6.53817" height="5.60306" transform="rotate(-180 6.53809 65.8796)" fill="white"
        fill-opacity="0.8" />
    <rect x="25.3496" y="45.7873" width="6.53817" height="5.60306" transform="rotate(-180 25.3496 45.7873)" fill="white"
        fill-opacity="0.8" />
    <rect x="6.53809" y="45.7873" width="6.53817" height="5.60306" transform="rotate(-180 6.53809 45.7873)" fill="white"
        fill-opacity="0.8" />
    <rect x="25.3496" y="25.6949" width="6.53817" height="5.60306" transform="rotate(-180 25.3496 25.6949)" fill="white"
        fill-opacity="0.8" />
    <rect x="6.53809" y="25.6949" width="6.53817" height="5.60306" transform="rotate(-180 6.53809 25.6949)" fill="white"
        fill-opacity="0.8" />
    <rect x="25.3496" y="5.60297" width="6.53817" height="5.60306" transform="rotate(-180 25.3496 5.60297)" fill="white"
        fill-opacity="0.8" />
    <rect x="6.53809" y="5.60297" width="6.53817" height="5.60306" transform="rotate(-180 6.53809 5.60297)" fill="white"
        fill-opacity="0.8" />
    <rect x="44.1611" y="65.8796" width="6.53817" height="5.60306" transform="rotate(-180 44.1611 65.8796)" fill="white"
        fill-opacity="0.8" />
    <rect x="44.1611" y="45.7873" width="6.53817" height="5.60306" transform="rotate(-180 44.1611 45.7873)" fill="white"
        fill-opacity="0.8" />
    <rect x="62.9727" y="65.8796" width="6.53817" height="5.60306" transform="rotate(-180 62.9727 65.8796)" fill="white"
        fill-opacity="0.8" />
    <rect x="62.9727" y="45.7873" width="6.53817" height="5.60306" transform="rotate(-180 62.9727 45.7873)" fill="white"
        fill-opacity="0.8" />
    <rect x="81.7842" y="65.8796" width="6.53817" height="5.60306" transform="rotate(-180 81.7842 65.8796)" fill="white"
        fill-opacity="0.8" />
    <rect x="81.7842" y="45.7873" width="6.53817" height="5.60306" transform="rotate(-180 81.7842 45.7873)" fill="white"
        fill-opacity="0.8" />
</svg>