<svg width="20" height="16" viewBox="0 0 20 16" fill="none" xmlns="http://www.w3.org/2000/svg">
<path d="M1.66667 9.6C1.2037 9.6 0.81037 9.44427 0.486667 9.1328C0.162222 8.82205 0 8.44444 0 8C0 7.55556 0.162222 7.17796 0.486667 6.8672C0.81037 6.55573 1.2037 6.4 1.66667 6.4C2.12963 6.4 2.52296 6.55573 2.84667 6.8672C3.17111 7.17796 3.33333 7.55556 3.33333 8C3.33333 8.44444 3.17111 8.82205 2.84667 9.1328C2.52296 9.44427 2.12963 9.6 1.66667 9.6ZM1.66667 3.2C1.2037 3.2 0.81037 3.04427 0.486667 2.7328C0.162222 2.42204 0 2.04444 0 1.6C0 1.15556 0.162222 0.777956 0.486667 0.4672C0.81037 0.155734 1.2037 0 1.66667 0C2.12963 0 2.52296 0.155734 2.84667 0.4672C3.17111 0.777956 3.33333 1.15556 3.33333 1.6C3.33333 2.04444 3.17111 2.42204 2.84667 2.7328C2.52296 3.04427 2.12963 3.2 1.66667 3.2ZM1.66667 16C1.2037 16 0.81037 15.8443 0.486667 15.5328C0.162222 15.222 0 14.8444 0 14.4C0 13.9556 0.162222 13.578 0.486667 13.2672C0.81037 12.9557 1.2037 12.8 1.66667 12.8C2.12963 12.8 2.52296 12.9557 2.84667 13.2672C3.17111 13.578 3.33333 13.9556 3.33333 14.4C3.33333 14.8444 3.17111 15.222 2.84667 15.5328C2.52296 15.8443 2.12963 16 1.66667 16ZM6.66667 15.4667C6.35185 15.4667 6.08815 15.3643 5.87556 15.1595C5.66222 14.9554 5.55556 14.7022 5.55556 14.4C5.55556 14.0978 5.66222 13.8446 5.87556 13.6405C6.08815 13.4357 6.35185 13.3333 6.66667 13.3333H18.8889C19.2037 13.3333 19.4674 13.4357 19.68 13.6405C19.8933 13.8446 20 14.0978 20 14.4C20 14.7022 19.8933 14.9554 19.68 15.1595C19.4674 15.3643 19.2037 15.4667 18.8889 15.4667H6.66667ZM6.66667 9.06667C6.35185 9.06667 6.08815 8.96427 5.87556 8.75947C5.66222 8.55538 5.55556 8.30222 5.55556 8C5.55556 7.69778 5.66222 7.44427 5.87556 7.23947C6.08815 7.03538 6.35185 6.93333 6.66667 6.93333H18.8889C19.2037 6.93333 19.4674 7.03538 19.68 7.23947C19.8933 7.44427 20 7.69778 20 8C20 8.30222 19.8933 8.55538 19.68 8.75947C19.4674 8.96427 19.2037 9.06667 18.8889 9.06667H6.66667ZM6.66667 2.66667C6.35185 2.66667 6.08815 2.56462 5.87556 2.36053C5.66222 2.15573 5.55556 1.90222 5.55556 1.6C5.55556 1.29778 5.66222 1.04427 5.87556 0.839467C6.08815 0.635378 6.35185 0.533333 6.66667 0.533333H18.8889C19.2037 0.533333 19.4674 0.635378 19.68 0.839467C19.8933 1.04427 20 1.29778 20 1.6C20 1.90222 19.8933 2.15573 19.68 2.36053C19.4674 2.56462 19.2037 2.66667 18.8889 2.66667H6.66667Z" fill="#535353" fill-opacity="0.5"/>
</svg>
