<svg width="18" height="18" viewBox="0 0 23 22" fill="none" xmlns="http://www.w3.org/2000/svg">
    <path
            d="M3.54041 5.17679C3.54041 3.99538 4.00973 2.86236 4.84511 2.02698C5.68049 1.1916 6.8135 0.72229 7.99491 0.72229C9.17632 0.72229 10.3093 1.1916 11.1447 2.02698C11.9801 2.86236 12.4494 3.99538 12.4494 5.17679C12.4494 6.35819 11.9801 7.49121 11.1447 8.32659C10.3093 9.16197 9.17632 9.63128 7.99491 9.63128C6.8135 9.63128 5.68049 9.16197 4.84511 8.32659C4.00973 7.49121 3.54041 6.35819 3.54041 5.17679ZM14.0692 7.60651C14.0692 7.1279 14.1635 6.65397 14.3467 6.21179C14.5298 5.76961 14.7983 5.36783 15.1367 5.0294C15.4751 4.69097 15.8769 4.42251 16.3191 4.23935C16.7613 4.05619 17.2352 3.96192 17.7138 3.96192C18.1924 3.96192 18.6664 4.05619 19.1085 4.23935C19.5507 4.42251 19.9525 4.69097 20.2909 5.0294C20.6294 5.36783 20.8978 5.76961 21.081 6.21179C21.2641 6.65397 21.3584 7.1279 21.3584 7.60651C21.3584 8.57312 20.9744 9.50013 20.2909 10.1836C19.6074 10.8671 18.6804 11.2511 17.7138 11.2511C16.7472 11.2511 15.8202 10.8671 15.1367 10.1836C14.4532 9.50013 14.0692 8.57312 14.0692 7.60651ZM0.300781 18.9452C0.300781 16.9046 1.11141 14.9476 2.55434 13.5047C3.99727 12.0617 5.9543 11.2511 7.99491 11.2511C10.0355 11.2511 11.9926 12.0617 13.4355 13.5047C14.8784 14.9476 15.689 16.9046 15.689 18.9452V18.9485L15.688 19.077C15.6857 19.2143 15.6485 19.3488 15.5799 19.4678C15.5113 19.5868 15.4136 19.6864 15.296 19.7573C13.0922 21.0844 10.5675 21.7838 7.99491 21.7799C5.32545 21.7799 2.82662 21.0413 0.694937 19.7573C0.577069 19.6866 0.479141 19.587 0.410374 19.468C0.341607 19.349 0.304264 19.2144 0.301861 19.077L0.300781 18.9452ZM17.3089 18.9485L17.3078 19.104C17.3017 19.4639 17.2158 19.818 17.0562 20.1407C18.9413 20.2569 20.8243 19.8811 22.5203 19.05C22.6515 18.9859 22.7629 18.8875 22.8427 18.7653C22.9226 18.643 22.9679 18.5015 22.9739 18.3556C23.012 17.4499 22.8156 16.5496 22.4036 15.742C21.9917 14.9345 21.3782 14.247 20.6225 13.7462C19.8669 13.2453 18.9947 12.9481 18.0904 12.8833C17.1862 12.8185 16.2805 12.9883 15.4612 13.3763C16.6633 14.9838 17.3113 16.938 17.3078 18.9452V18.9485H17.3089Z"
            fill="white" fill-opacity="0.5"/>
</svg>