<svg width="18" height="18" viewBox="0 0 22 22" fill="none" xmlns="http://www.w3.org/2000/svg">
    <path
            d="M11.9674 6.08236V1.41569C11.9674 1.08513 12.0794 0.807857 12.3034 0.583857C12.5267 0.360634 12.8036 0.249023 13.1341 0.249023H20.1341C20.4647 0.249023 20.7416 0.360634 20.9648 0.583857C21.1888 0.807857 21.3008 1.08513 21.3008 1.41569V6.08236C21.3008 6.41291 21.1888 6.6898 20.9648 6.91302C20.7416 7.13702 20.4647 7.24902 20.1341 7.24902H13.1341C12.8036 7.24902 12.5267 7.13702 12.3034 6.91302C12.0794 6.6898 11.9674 6.41291 11.9674 6.08236ZM0.300781 10.749V1.41569C0.300781 1.08513 0.412781 0.807857 0.636781 0.583857C0.860004 0.360634 1.13689 0.249023 1.46745 0.249023H8.46745C8.798 0.249023 9.07528 0.360634 9.29928 0.583857C9.5225 0.807857 9.63411 1.08513 9.63411 1.41569V10.749C9.63411 11.0796 9.5225 11.3565 9.29928 11.5797C9.07528 11.8037 8.798 11.9157 8.46745 11.9157H1.46745C1.13689 11.9157 0.860004 11.8037 0.636781 11.5797C0.412781 11.3565 0.300781 11.0796 0.300781 10.749ZM11.9674 20.0824V10.749C11.9674 10.4185 12.0794 10.1412 12.3034 9.91719C12.5267 9.69397 12.8036 9.58236 13.1341 9.58236H20.1341C20.4647 9.58236 20.7416 9.69397 20.9648 9.91719C21.1888 10.1412 21.3008 10.4185 21.3008 10.749V20.0824C21.3008 20.4129 21.1888 20.6898 20.9648 20.913C20.7416 21.137 20.4647 21.249 20.1341 21.249H13.1341C12.8036 21.249 12.5267 21.137 12.3034 20.913C12.0794 20.6898 11.9674 20.4129 11.9674 20.0824ZM0.300781 20.0824V15.4157C0.300781 15.0851 0.412781 14.8079 0.636781 14.5839C0.860004 14.3606 1.13689 14.249 1.46745 14.249H8.46745C8.798 14.249 9.07528 14.3606 9.29928 14.5839C9.5225 14.8079 9.63411 15.0851 9.63411 15.4157V20.0824C9.63411 20.4129 9.5225 20.6898 9.29928 20.913C9.07528 21.137 8.798 21.249 8.46745 21.249H1.46745C1.13689 21.249 0.860004 21.137 0.636781 20.913C0.412781 20.6898 0.300781 20.4129 0.300781 20.0824Z"
            fill="white" fill-opacity="0.5"/>
</svg>