<svg width="15" height="18" viewBox="0 0 18 24" fill="none" xmlns="http://www.w3.org/2000/svg">
    <path
        d="M0 12V23.9999L8.39521 23.9803L16.7802 23.9508L17.0143 23.7245L17.2483 23.4983L17.2789 15.4426L17.2992 7.37702H13.7987H10.2879L10.003 7.14096L9.71809 6.90489L9.68756 3.45244L9.65703 -1.33514e-05H4.8336H0V12ZM7.22496 5.65571C7.82535 5.95079 7.91693 6.61965 7.43866 7.09178L7.14356 7.37702H4.8336H2.52365L2.22855 7.09178C1.76045 6.62948 1.84186 5.96063 2.42189 5.66555C2.82893 5.44916 6.79757 5.43932 7.22496 5.65571ZM12.9541 9.3639C13.2899 9.53112 13.4222 9.74751 13.4323 10.1114C13.4323 10.5442 13.2899 10.7803 12.9235 10.9672C12.4758 11.1934 2.88999 11.1934 2.44224 10.9672C1.84186 10.6721 1.75027 10.0032 2.22855 9.53112L2.52365 9.24587H7.63201C11.3157 9.24587 12.7912 9.27538 12.9541 9.3639ZM12.9235 13.0327C13.2899 13.2196 13.4323 13.4557 13.4323 13.8885C13.4222 14.2524 13.2899 14.4688 12.9541 14.636C12.7912 14.7245 11.3157 14.7541 7.63201 14.7541H2.52365L2.22855 14.4688C1.76045 14.0065 1.84186 13.3377 2.42189 13.0426C2.83911 12.8164 12.486 12.8164 12.9235 13.0327ZM12.9541 16.7409C13.2899 16.9081 13.4222 17.1245 13.4323 17.4885C13.4323 17.9213 13.2899 18.1573 12.9235 18.3442C12.6691 18.4721 11.8958 18.4918 7.68289 18.4918C3.47002 18.4918 2.69664 18.4721 2.44224 18.3442C1.84186 18.0491 1.75027 17.3803 2.22855 16.9081L2.52365 16.6229H7.63201C11.3157 16.6229 12.7912 16.6524 12.9541 16.7409Z"
        fill="white" />
</svg>