<svg width="18" height="18" viewBox="0 0 23 25" fill="none" xmlns="http://www.w3.org/2000/svg">
    <path
            d="M10.4386 23.4502H2.55364C1.95614 23.4502 1.38312 23.2128 0.960627 22.7903C0.538135 22.3678 0.300781 21.7948 0.300781 21.1973L0.312046 5.42734C0.312046 4.18827 1.3033 3.17449 2.55364 3.17449H3.68006V0.921631H5.93292V3.17449H14.9443V0.921631H17.1972V3.17449H18.3236C19.5627 3.17449 20.5765 4.18827 20.5765 5.42734V12.1859H18.3236V9.93305H2.55364V21.1973H10.4386V23.4502ZM21.8493 17.8068L22.6491 17.007C22.7535 16.9028 22.8364 16.779 22.8929 16.6428C22.9494 16.5065 22.9785 16.3604 22.9785 16.2129C22.9785 16.0654 22.9494 15.9193 22.8929 15.783C22.8364 15.6467 22.7535 15.523 22.6491 15.4187L21.8493 14.619C21.7451 14.5146 21.6213 14.4317 21.4851 14.3752C21.3488 14.3187 21.2027 14.2896 21.0552 14.2896C20.9077 14.2896 20.7616 14.3187 20.6253 14.3752C20.4891 14.4317 20.3653 14.5146 20.2611 14.619L19.4613 15.4187L21.8493 17.8068ZM21.0496 18.6065L15.0795 24.5766H12.6915V22.1886L18.6615 16.2185L21.0496 18.6065Z"
            fill="white" fill-opacity="0.5"/>
</svg>