<svg width="17" height="18" viewBox="0 0 17 18" fill="none" xmlns="http://www.w3.org/2000/svg">
<path d="M9.95747 17.1378H6.74412C6.5299 17.1378 6.34424 17.0664 6.18714 16.9236C6.03005 16.7808 5.93722 16.6023 5.90865 16.388L5.65159 14.3958C5.46593 14.3244 5.29112 14.2387 5.12717 14.1387C4.96265 14.0387 4.80184 13.9316 4.64474 13.8174L2.781 14.5886C2.58106 14.66 2.38112 14.6671 2.18118 14.61C1.98124 14.5529 1.82414 14.4315 1.70989 14.2458L0.124639 11.4823C0.0103865 11.2967 -0.0253172 11.0967 0.0175273 10.8825C0.0603719 10.6683 0.167483 10.4969 0.338862 10.3684L1.94553 9.14731C1.93125 9.04734 1.92411 8.9508 1.92411 8.85768V8.27928C1.92411 8.18674 1.93125 8.09048 1.94553 7.99051L0.338862 6.76944C0.167483 6.64091 0.0603719 6.46953 0.0175273 6.25531C-0.0253172 6.04108 0.0103865 5.84114 0.124639 5.65548L1.70989 2.89201C1.80986 2.69207 1.96324 2.56696 2.17004 2.51669C2.37741 2.46699 2.58106 2.47784 2.781 2.54925L4.64474 3.32045C4.80184 3.2062 4.96607 3.09909 5.13745 2.99912C5.30883 2.89915 5.48021 2.81346 5.65159 2.74205L5.90865 0.74978C5.93722 0.535557 6.03005 0.357038 6.18714 0.214223C6.34424 0.0714076 6.5299 0 6.74412 0H9.95747C10.1717 0 10.3573 0.0714076 10.5144 0.214223C10.6715 0.357038 10.7644 0.535557 10.7929 0.74978L11.05 2.74205C11.2357 2.81346 11.4108 2.89915 11.5753 2.99912C11.7392 3.09909 11.8998 3.2062 12.0568 3.32045L13.9206 2.54925C14.1205 2.47784 14.3205 2.4707 14.5204 2.52783C14.7204 2.58495 14.8774 2.70635 14.9917 2.89201L16.577 5.65548C16.6912 5.84114 16.7269 6.04108 16.6841 6.25531C16.6412 6.46953 16.5341 6.64091 16.3627 6.76944L14.7561 7.99051C14.7703 8.09048 14.7775 8.18674 14.7775 8.27928V8.85768C14.7775 8.9508 14.7632 9.04734 14.7346 9.14731L16.3413 10.3684C16.5127 10.4969 16.6198 10.6683 16.6626 10.8825C16.7055 11.0967 16.6698 11.2967 16.5555 11.4823L14.9703 14.2244C14.856 14.4101 14.6955 14.5352 14.4887 14.5997C14.2813 14.6637 14.0777 14.66 13.8777 14.5886L12.0568 13.8174C11.8998 13.9316 11.7355 14.0387 11.5641 14.1387C11.3928 14.2387 11.2214 14.3244 11.05 14.3958L10.7929 16.388C10.7644 16.6023 10.6715 16.7808 10.5144 16.9236C10.3573 17.0664 10.1717 17.1378 9.95747 17.1378ZM8.39364 11.568C9.22197 11.568 9.9289 11.2753 10.5144 10.6897C11.1 10.1042 11.3928 9.39724 11.3928 8.56891C11.3928 7.74058 11.1 7.03365 10.5144 6.44811C9.9289 5.86256 9.22197 5.56979 8.39364 5.56979C7.55103 5.56979 6.84038 5.86256 6.26169 6.44811C5.68358 7.03365 5.39452 7.74058 5.39452 8.56891C5.39452 9.39724 5.68358 10.1042 6.26169 10.6897C6.84038 11.2753 7.55103 11.568 8.39364 11.568Z" fill="#A7A7A7"/>
</svg>
