<svg width="18" height="18" viewBox="0 0 23 24" fill="none" xmlns="http://www.w3.org/2000/svg">
    <path
            d="M1.48213 0.898034C1.21253 1.17556 1.17288 1.63545 1.3949 1.90505C1.46627 2.0002 3.03626 3.20545 4.88377 4.58514L8.22992 7.09078H9.79991H11.3699L12.7734 8.87486C13.5504 9.85016 14.2562 10.7065 14.3513 10.7779C14.4544 10.8413 14.6526 10.8968 14.8033 10.8968C15.0491 10.8968 15.168 10.8096 15.8024 10.1594C17.3644 8.56562 19.989 5.81417 20.1397 5.62387C20.3775 5.32256 20.441 5.37806 20.441 5.90932C20.441 6.3375 20.4648 6.41679 20.6709 6.62295C21.0674 7.01149 21.6383 6.90048 21.9079 6.37715C22.003 6.19477 22.0268 5.81417 22.0268 4.60099C22.0268 3.08651 22.0268 3.05479 21.8365 2.83277L21.6462 2.61075L20.1079 2.55525C18.3952 2.49181 18.2287 2.50767 17.9988 2.75348C17.7767 3.00722 17.7212 3.24509 17.8243 3.56226C17.9353 3.90322 18.2366 4.07766 18.7124 4.08559C19.4419 4.09352 19.4815 4.03802 17.0948 6.51987C15.8737 7.79648 14.8429 8.83521 14.8033 8.81936C14.7636 8.8035 14.1848 8.09779 13.5187 7.24936C12.8606 6.40093 12.2263 5.66351 12.1153 5.60801C11.9725 5.53665 11.4413 5.50493 10.3312 5.50493L8.74532 5.497L5.53397 3.08651C2.63187 0.905963 2.29091 0.668086 2.02131 0.668086C1.79137 0.668086 1.65657 0.72359 1.48213 0.898034Z"
            fill="white" fill-opacity="0.5"/>
    <path
            d="M1.09378 7.97088C0.982772 8.01846 0.808329 8.12947 0.713178 8.22462C0.284998 8.62108 0.300857 8.30391 0.300857 15.6385V22.4497L0.483229 22.7193C0.57838 22.862 0.784541 23.0682 0.927268 23.1633C1.181 23.3378 1.26823 23.3457 2.66377 23.3457C4.02761 23.3457 4.14654 23.3298 4.43993 23.1713C4.60644 23.0761 4.82846 22.8699 4.92361 22.7114L5.09805 22.4338V15.6068V8.7876L4.89982 8.49422C4.51922 7.93917 4.31306 7.88366 2.71135 7.89159C1.92635 7.89159 1.20479 7.93124 1.09378 7.97088Z"
            fill="white" fill-opacity="0.5"/>
    <path
            d="M7.1199 11.1902C6.84238 11.2932 6.54899 11.5628 6.40627 11.8562C6.24768 12.1575 6.24768 12.3002 6.26354 17.3512C6.28733 22.4735 6.28733 22.5448 6.45384 22.7669C6.54106 22.8858 6.7393 23.0682 6.88995 23.1713C7.15162 23.3457 7.19919 23.3536 8.70575 23.3298C10.1885 23.306 10.2599 23.2981 10.5215 23.1157C10.6643 23.0127 10.8546 22.7827 10.9339 22.6003C11.0687 22.2911 11.0845 21.9819 11.0845 17.2322V12.1892L10.9022 11.8404C10.7832 11.6263 10.6008 11.428 10.4026 11.317C10.1172 11.1505 10.0061 11.1346 8.6661 11.1426C7.88111 11.1426 7.18333 11.1664 7.1199 11.1902Z"
            fill="white" fill-opacity="0.5"/>
    <path
            d="M18.816 11.325C18.6415 11.428 18.4274 11.6342 18.3402 11.7849C18.1896 12.0386 18.1816 12.1892 18.1816 17.2402V22.4338L18.3561 22.7114C18.4512 22.8699 18.6733 23.0761 18.8398 23.1713C19.1332 23.3298 19.2521 23.3457 20.6159 23.3457C22.0115 23.3457 22.0987 23.3378 22.3524 23.1633C22.4952 23.0682 22.7013 22.862 22.7965 22.7193L22.9788 22.4497V17.2402V12.0307L22.7965 11.7611C22.7013 11.6183 22.4952 11.4122 22.3524 11.317C22.0987 11.1426 22.0115 11.1347 20.608 11.1347C19.1887 11.1347 19.1173 11.1426 18.816 11.325Z"
            fill="white" fill-opacity="0.5"/>
    <path
            d="M12.8763 14.5601C12.6859 14.6711 12.4956 14.8772 12.3767 15.0913L12.1943 15.4402V18.8577C12.1943 22.0215 12.2102 22.299 12.345 22.6003C12.4243 22.7827 12.6146 23.0126 12.7573 23.1157C13.019 23.2981 13.0903 23.306 14.5731 23.3298C16.0797 23.3536 16.1272 23.3457 16.3889 23.1712C16.5396 23.0681 16.7378 22.8858 16.825 22.7668C16.9836 22.5448 16.9915 22.4497 17.0153 18.9766C17.0312 15.5512 17.0312 15.4085 16.8805 15.1072C16.7854 14.9327 16.603 14.7107 16.4603 14.6076C16.2145 14.4332 16.1272 14.4253 14.6921 14.4015C13.2489 14.3856 13.1696 14.3935 12.8763 14.5601Z"
            fill="white" fill-opacity="0.5"/>
</svg>