<svg width="16" height="18" viewBox="0 0 16 18" fill="none" xmlns="http://www.w3.org/2000/svg">
<path d="M0.510564 14.253C0.354799 14.1405 0.181726 13.9155 0.121151 13.7511C0.0519218 13.5693 0.00865363 13.0761 0 12.479C0 11.8646 0.0432682 11.4059 0.112497 11.2242C0.181726 11.0771 0.354799 10.8434 0.501911 10.705C0.657676 10.5752 0.917285 10.454 1.38458 10.3848L1.38458 0.433126L1.60092 0.216785C1.73938 0.0783272 1.91245 0.000444412 2.07687 0.000444412C2.23264 0.000444412 2.42302 0.0783272 2.76916 0.424471L2.76916 10.3848L3.07204 10.4281C3.23646 10.454 3.49607 10.5752 3.65183 10.705C3.79894 10.8434 3.97202 11.0771 4.04125 11.2242C4.11048 11.4059 4.15374 11.8646 4.15374 12.4617C4.15374 13.0588 4.11048 13.5174 4.04125 13.6905C3.97202 13.8463 3.79894 14.0799 3.65183 14.2097C3.49607 14.3482 3.23646 14.4693 2.76916 14.5385V16.0529C2.76916 17.55 2.76916 17.5673 2.55282 17.7837C2.41436 17.9221 2.24129 18 2.07687 18C1.92111 18 1.73073 17.9221 1.60092 17.7837C1.38458 17.576 1.38458 17.5587 1.38458 14.5385L1.0817 14.4953C0.917285 14.4693 0.657676 14.3568 0.510564 14.253Z" fill="#F9F9F9"/>
<path d="M6.04889 8.71465C5.89312 8.60215 5.72005 8.37716 5.65948 8.21274C5.59025 8.03102 5.54698 7.53776 5.53832 6.94066C5.53832 6.32625 5.58159 5.86761 5.65082 5.68588C5.72005 5.53877 5.89312 5.30512 6.04024 5.16666C6.196 5.03686 6.45561 4.91571 6.92291 4.84648V0.433126L7.13925 0.216785C7.27771 0.0783272 7.45078 0.000444412 7.6152 0.000444412C7.77096 0.000444412 7.96134 0.0783272 8.30749 0.424471L8.30749 4.84648L8.61036 4.88975C8.77478 4.91571 9.03439 5.03686 9.19016 5.16666C9.33727 5.30512 9.51034 5.53877 9.57957 5.68588C9.6488 5.86761 9.69207 6.32625 9.69207 6.92335C9.69207 7.52045 9.6488 7.97909 9.57957 8.15217C9.51034 8.30793 9.33727 8.54158 9.19016 8.67138C9.03439 8.80984 8.77478 8.93099 8.30749 9.00022V17.5673L8.09115 17.7837C7.95269 17.9221 7.77962 18 7.6152 18C7.45943 18 7.26905 17.9221 6.92291 17.576L6.92291 9.00022L6.62003 8.95695C6.45561 8.93099 6.196 8.8185 6.04889 8.71465Z" fill="#F9F9F9"/>
<path d="M11.5872 14.253C11.4314 14.1405 11.2584 13.9155 11.1978 13.7511C11.1286 13.5693 11.0853 13.0761 11.0766 12.479C11.0766 11.8646 11.1199 11.4059 11.1891 11.2242C11.2584 11.0771 11.4314 10.8434 11.5786 10.705C11.7343 10.5752 11.9939 10.454 12.4612 10.3848L12.4612 0.433126L12.6776 0.216785C12.816 0.0783272 12.9891 0.000444412 13.1535 0.000444412C13.3093 0.000444412 13.4997 0.0783272 13.8458 0.424471L13.8458 10.3848L14.1487 10.4281C14.3131 10.454 14.5727 10.5752 14.7285 10.705C14.8756 10.8434 15.0487 11.0771 15.1179 11.2242C15.1871 11.4059 15.2304 11.8646 15.2304 12.4617C15.2304 13.0588 15.1871 13.5174 15.1179 13.6905C15.0487 13.8463 14.8756 14.0799 14.7285 14.2097C14.5727 14.3482 14.3131 14.4693 13.8458 14.5385V16.0529C13.8458 17.55 13.8458 17.5673 13.6295 17.7837C13.491 17.9221 13.3179 18 13.1535 18C12.9978 18 12.8074 17.9221 12.6776 17.7837C12.4612 17.576 12.4612 17.5587 12.4612 14.5385L12.1584 14.4953C11.9939 14.4693 11.7343 14.3568 11.5872 14.253Z" fill="#F9F9F9"/>
</svg>
