<svg xmlns="http://www.w3.org/2000/svg" version="1.1" xmlns:xlink="http://www.w3.org/1999/xlink" xmlns:svgjs="http://svgjs.dev/svgjs" width="1000" height="1000" viewBox="0 0 1000 1000"><rect width="1000" height="1000" fill="#000000"></rect><g transform="matrix(0.7,0,0,0.7,149.57575757575756,282.1265587044535)"><svg viewBox="0 0 396 247" data-background-color="#088cfb" preserveAspectRatio="xMidYMid meet" height="623" width="1000" xmlns="http://www.w3.org/2000/svg" xmlns:xlink="http://www.w3.org/1999/xlink"><g id="tight-bounds" transform="matrix(1,0,0,1,0.2400000000000091,-0.09999999999999432)"><svg viewBox="0 0 395.52 247.2" height="247.2" width="395.52"><g><svg></svg></g><g><svg viewBox="0 0 395.52 247.2" height="247.2" width="395.52"><g transform="matrix(1,0,0,1,75.54432000000001,92.56165211437751)"><svg viewBox="0 0 244.43135999999996 62.07669577124498" height="62.07669577124498" width="244.43135999999996"><g><svg viewBox="0 0 244.43135999999996 62.07669577124498" height="62.07669577124498" width="244.43135999999996"><g><svg viewBox="0 0 244.43135999999996 62.07669577124498" height="62.07669577124498" width="244.43135999999996"><g><svg viewBox="0 0 244.43135999999996 62.07669577124498" height="62.07669577124498" width="244.43135999999996"><g id="textblocktransform"><svg viewBox="0 0 244.43135999999996 62.07669577124498" height="62.07669577124498" width="244.43135999999996" id="textblock"><g><svg viewBox="0 0 244.43135999999996 39.80837537063088" height="39.80837537063088" width="244.43135999999996"><g transform="matrix(1,0,0,1,0,0)"><svg width="244.43135999999996" viewBox="4.49 -36.25 225.6 36.74" height="39.80837537063088" data-palette-color="#ffffff"><path d="M12.06-29.49L12.06-19.85 14.5-19.85Q18.09-19.85 19.8-21.04 21.51-22.24 21.51-24.8L21.51-24.8Q21.51-27.34 19.76-28.42 18.02-29.49 14.36-29.49L14.36-29.49 12.06-29.49ZM16.09-13.7L12.06-13.7 12.06 0 4.49 0 4.49-35.69 14.89-35.69Q22.17-35.69 25.66-33.04 29.15-30.4 29.15-25L29.15-25Q29.15-21.85 27.42-19.4 25.68-16.94 22.51-15.55L22.51-15.55Q30.57-3.52 33.01 0L33.01 0 24.61 0 16.09-13.7ZM69.89-17.9L69.89-17.9Q69.89-9.03 65.5-4.27 61.11 0.49 52.9 0.49L52.9 0.49Q44.7 0.49 40.31-4.27 35.91-9.03 35.91-17.94L35.91-17.94Q35.91-26.86 40.32-31.56 44.72-36.25 52.95-36.25L52.95-36.25Q61.18-36.25 65.54-31.52 69.89-26.78 69.89-17.9ZM43.85-17.9L43.85-17.9Q43.85-11.91 46.12-8.89 48.39-5.86 52.9-5.86L52.9-5.86Q61.96-5.86 61.96-17.9L61.96-17.9Q61.96-29.96 52.95-29.96L52.95-29.96Q48.44-29.96 46.14-26.92 43.85-23.88 43.85-17.9ZM109.69-17.9L109.69-17.9Q109.69-9.03 105.29-4.27 100.9 0.49 92.7 0.49L92.7 0.49Q84.49 0.49 80.1-4.27 75.7-9.03 75.7-17.94L75.7-17.94Q75.7-26.86 80.11-31.56 84.52-36.25 92.74-36.25L92.74-36.25Q100.97-36.25 105.33-31.52 109.69-26.78 109.69-17.9ZM83.64-17.9L83.64-17.9Q83.64-11.91 85.91-8.89 88.18-5.86 92.7-5.86L92.7-5.86Q101.75-5.86 101.75-17.9L101.75-17.9Q101.75-29.96 92.74-29.96L92.74-29.96Q88.23-29.96 85.93-26.92 83.64-23.88 83.64-17.9ZM138.15-9.91L138.15-9.91Q138.15-5.08 134.67-2.29 131.19 0.49 124.99 0.49L124.99 0.49Q119.28 0.49 114.89-1.66L114.89-1.66 114.89-8.69Q118.5-7.08 121-6.42 123.5-5.76 125.58-5.76L125.58-5.76Q128.07-5.76 129.4-6.71 130.73-7.67 130.73-9.55L130.73-9.55Q130.73-10.6 130.14-11.41 129.56-12.23 128.42-12.99 127.29-13.75 123.8-15.41L123.8-15.41Q120.52-16.94 118.89-18.36 117.25-19.78 116.28-21.66 115.3-23.54 115.3-26.05L115.3-26.05Q115.3-30.79 118.51-33.5 121.72-36.21 127.39-36.21L127.39-36.21Q130.17-36.21 132.7-35.55 135.22-34.89 137.98-33.69L137.98-33.69 135.54-27.81Q132.68-28.98 130.82-29.44 128.95-29.91 127.14-29.91L127.14-29.91Q124.99-29.91 123.85-28.91 122.7-27.91 122.7-26.29L122.7-26.29Q122.7-25.29 123.16-24.55 123.63-23.8 124.64-23.11 125.65-22.41 129.44-20.61L129.44-20.61Q134.44-18.21 136.3-15.81 138.15-13.4 138.15-9.91ZM158.39-29.39L158.39 0 150.82 0 150.82-29.39 141.13-29.39 141.13-35.69 168.08-35.69 168.08-29.39 158.39-29.39ZM194.13-6.25L194.13 0 173.57 0 173.57-35.69 194.13-35.69 194.13-29.49 181.14-29.49 181.14-21.66 193.22-21.66 193.22-15.45 181.14-15.45 181.14-6.25 194.13-6.25ZM209.14-29.49L209.14-19.85 211.58-19.85Q215.17-19.85 216.88-21.04 218.59-22.24 218.59-24.8L218.59-24.8Q218.59-27.34 216.84-28.42 215.1-29.49 211.44-29.49L211.44-29.49 209.14-29.49ZM213.17-13.7L209.14-13.7 209.14 0 201.57 0 201.57-35.69 211.97-35.69Q219.25-35.69 222.74-33.04 226.23-30.4 226.23-25L226.23-25Q226.23-21.85 224.5-19.4 222.76-16.94 219.59-15.55L219.59-15.55Q227.65-3.52 230.09 0L230.09 0 221.69 0 213.17-13.7Z" opacity="1" transform="matrix(1,0,0,1,0,0)" fill="#ffffff" class="undefined-text-0" data-fill-palette-color="primary" id="text-0"></path></svg></g></svg></g><g transform="matrix(1,0,0,1,58.66352640000002,49.20617739462793)"><svg viewBox="0 0 185.76783359999993 12.870518376617046" height="12.870518376617046" width="185.76783359999993"><g transform="matrix(1,0,0,1,0,0)"><svg width="185.76783359999993" viewBox="0 -37.99 721.61 50" height="12.870518376617046" data-palette-color="#ffffff"><path d="M8.2-35.69L15.6-21 23.05-35.69 31.2-35.69 19.36-13.89 19.36 0 11.84 0 11.84-13.65 0-35.69 8.2-35.69ZM41.04-13.7L41.04-13.7Q41.04-9.64 42.37-7.57 43.7-5.49 46.7-5.49L46.7-5.49Q49.68-5.49 50.99-7.56 52.29-9.62 52.29-13.7L52.29-13.7Q52.29-17.75 50.97-19.78 49.66-21.8 46.65-21.8L46.65-21.8Q43.67-21.8 42.36-19.79 41.04-17.77 41.04-13.7ZM59.91-13.7L59.91-13.7Q59.91-7.03 56.39-3.27 52.88 0.49 46.6 0.49L46.6 0.49Q42.67 0.49 39.67-1.23 36.67-2.95 35.06-6.18 33.44-9.4 33.44-13.7L33.44-13.7Q33.44-20.39 36.94-24.1 40.43-27.81 46.75-27.81L46.75-27.81Q50.68-27.81 53.68-26.1 56.69-24.39 58.3-21.19 59.91-17.99 59.91-13.7ZM91.11 0L85.4 0 84.39-3.49 84-3.49Q82.81-1.59 80.61-0.55 78.41 0.49 75.61 0.49L75.61 0.49Q70.8 0.49 68.35-2.09 65.91-4.66 65.91-9.5L65.91-9.5 65.91-27.29 73.36-27.29 73.36-11.35Q73.36-8.4 74.41-6.92 75.46-5.44 77.75-5.44L77.75-5.44Q80.88-5.44 82.27-7.53 83.66-9.62 83.66-14.45L83.66-14.45 83.66-27.29 91.11-27.29 91.11 0ZM114.15-27.81L114.15-27.81Q115.67-27.81 116.67-27.59L116.67-27.59 116.11-20.61Q115.2-20.85 113.91-20.85L113.91-20.85Q110.34-20.85 108.35-19.02 106.36-17.19 106.36-13.89L106.36-13.89 106.36 0 98.92 0 98.92-27.29 104.56-27.29 105.66-22.71 106.02-22.71Q107.29-25 109.45-26.4 111.61-27.81 114.15-27.81ZM135.19 0L135.19-35.69 146.3-35.69Q153.89-35.69 157.32-33.53 160.75-31.37 160.75-26.66L160.75-26.66Q160.75-23.46 159.25-21.41 157.75-19.36 155.26-18.95L155.26-18.95 155.26-18.7Q158.65-17.94 160.16-15.87 161.66-13.79 161.66-10.35L161.66-10.35Q161.66-5.47 158.13-2.73 154.6 0 148.55 0L148.55 0 135.19 0ZM142.76-29.49L142.76-21.56 147.16-21.56Q150.23-21.56 151.61-22.51 152.99-23.46 152.99-25.66L152.99-25.66Q152.99-27.71 151.49-28.6 149.99-29.49 146.74-29.49L146.74-29.49 142.76-29.49ZM147.45-15.55L142.76-15.55 142.76-6.25 147.69-6.25Q150.82-6.25 152.31-7.45 153.8-8.64 153.8-11.11L153.8-11.11Q153.8-15.55 147.45-15.55L147.45-15.55ZM193.25 0L187.53 0 186.53-3.49 186.14-3.49Q184.95-1.59 182.75-0.55 180.55 0.49 177.74 0.49L177.74 0.49Q172.93 0.49 170.49-2.09 168.05-4.66 168.05-9.5L168.05-9.5 168.05-27.29 175.5-27.29 175.5-11.35Q175.5-8.4 176.55-6.92 177.6-5.44 179.89-5.44L179.89-5.44Q183.02-5.44 184.41-7.53 185.8-9.62 185.8-14.45L185.8-14.45 185.8-27.29 193.25-27.29 193.25 0ZM220.1-8.11L220.1-8.11Q220.1-3.91 217.18-1.71 214.26 0.49 208.45 0.49L208.45 0.49Q205.48 0.49 203.38 0.09 201.28-0.32 199.45-1.1L199.45-1.1 199.45-7.25Q201.52-6.27 204.12-5.62 206.72-4.96 208.7-4.96L208.7-4.96Q212.75-4.96 212.75-7.3L212.75-7.3Q212.75-8.18 212.21-8.73 211.68-9.28 210.36-9.97 209.04-10.67 206.84-11.6L206.84-11.6Q203.69-12.92 202.22-14.04 200.74-15.16 200.07-16.61 199.4-18.07 199.4-20.19L199.4-20.19Q199.4-23.83 202.22-25.82 205.04-27.81 210.21-27.81L210.21-27.81Q215.14-27.81 219.81-25.66L219.81-25.66 217.56-20.29Q215.51-21.17 213.73-21.73 211.95-22.29 210.09-22.29L210.09-22.29Q206.79-22.29 206.79-20.51L206.79-20.51Q206.79-19.51 207.86-18.77 208.92-18.04 212.51-16.6L212.51-16.6Q215.71-15.31 217.19-14.18 218.68-13.06 219.39-11.6 220.1-10.13 220.1-8.11ZM225.59-34.35L225.59-34.35Q225.59-37.99 229.64-37.99L229.64-37.99Q233.7-37.99 233.7-34.35L233.7-34.35Q233.7-32.62 232.68-31.65 231.67-30.69 229.64-30.69L229.64-30.69Q225.59-30.69 225.59-34.35ZM233.35-27.29L233.35 0 225.91 0 225.91-27.29 233.35-27.29ZM266.36-17.8L266.36 0 258.91 0 258.91-15.94Q258.91-18.9 257.86-20.37 256.81-21.85 254.52-21.85L254.52-21.85Q251.39-21.85 250-19.76 248.61-17.68 248.61-12.84L248.61-12.84 248.61 0 241.16 0 241.16-27.29 246.85-27.29 247.85-23.8 248.27-23.8Q249.51-25.78 251.7-26.79 253.88-27.81 256.67-27.81L256.67-27.81Q261.43-27.81 263.89-25.23 266.36-22.66 266.36-17.8L266.36-17.8ZM285.33-22.51L285.33-22.51Q282.96-22.51 281.62-21.01 280.27-19.51 280.08-16.75L280.08-16.75 290.53-16.75Q290.48-19.51 289.09-21.01 287.69-22.51 285.33-22.51ZM286.38 0.49L286.38 0.49Q279.78 0.49 276.07-3.15 272.36-6.79 272.36-13.45L272.36-13.45Q272.36-20.31 275.79-24.06 279.22-27.81 285.28-27.81L285.28-27.81Q291.06-27.81 294.29-24.51 297.51-21.22 297.51-15.41L297.51-15.41 297.51-11.79 279.91-11.79Q280.03-8.62 281.79-6.84 283.54-5.05 286.72-5.05L286.72-5.05Q289.18-5.05 291.38-5.57 293.58-6.08 295.97-7.2L295.97-7.2 295.97-1.44Q294.02-0.46 291.8 0.01 289.57 0.49 286.38 0.49ZM322.6-8.11L322.6-8.11Q322.6-3.91 319.69-1.71 316.77 0.49 310.96 0.49L310.96 0.49Q307.98 0.49 305.88 0.09 303.78-0.32 301.95-1.1L301.95-1.1 301.95-7.25Q304.03-6.27 306.63-5.62 309.23-4.96 311.2-4.96L311.2-4.96Q315.26-4.96 315.26-7.3L315.26-7.3Q315.26-8.18 314.72-8.73 314.18-9.28 312.86-9.97 311.54-10.67 309.35-11.6L309.35-11.6Q306.2-12.92 304.72-14.04 303.24-15.16 302.57-16.61 301.9-18.07 301.9-20.19L301.9-20.19Q301.9-23.83 304.72-25.82 307.54-27.81 312.72-27.81L312.72-27.81Q317.65-27.81 322.31-25.66L322.31-25.66 320.07-20.29Q318.01-21.17 316.23-21.73 314.45-22.29 312.59-22.29L312.59-22.29Q309.3-22.29 309.3-20.51L309.3-20.51Q309.3-19.51 310.36-18.77 311.42-18.04 315.01-16.6L315.01-16.6Q318.21-15.31 319.7-14.18 321.19-13.06 321.9-11.6 322.6-10.13 322.6-8.11ZM347.46-8.11L347.46-8.11Q347.46-3.91 344.54-1.71 341.62 0.49 335.81 0.49L335.81 0.49Q332.83 0.49 330.73 0.09 328.63-0.32 326.8-1.1L326.8-1.1 326.8-7.25Q328.88-6.27 331.48-5.62 334.08-4.96 336.05-4.96L336.05-4.96Q340.11-4.96 340.11-7.3L340.11-7.3Q340.11-8.18 339.57-8.73 339.03-9.28 337.71-9.97 336.4-10.67 334.2-11.6L334.2-11.6Q331.05-12.92 329.57-14.04 328.1-15.16 327.42-16.61 326.75-18.07 326.75-20.19L326.75-20.19Q326.75-23.83 329.57-25.82 332.39-27.81 337.57-27.81L337.57-27.81Q342.5-27.81 347.16-25.66L347.16-25.66 344.92-20.29Q342.87-21.17 341.08-21.73 339.3-22.29 337.45-22.29L337.45-22.29Q334.15-22.29 334.15-20.51L334.15-20.51Q334.15-19.51 335.21-18.77 336.27-18.04 339.86-16.6L339.86-16.6Q343.06-15.31 344.55-14.18 346.04-13.06 346.75-11.6 347.46-10.13 347.46-8.11ZM374.4-29.49L374.4-19.85 376.84-19.85Q380.43-19.85 382.14-21.04 383.85-22.24 383.85-24.8L383.85-24.8Q383.85-27.34 382.11-28.42 380.36-29.49 376.7-29.49L376.7-29.49 374.4-29.49ZM378.43-13.7L374.4-13.7 374.4 0 366.84 0 366.84-35.69 377.24-35.69Q384.51-35.69 388-33.04 391.49-30.4 391.49-25L391.49-25Q391.49-21.85 389.76-19.4 388.03-16.94 384.85-15.55L384.85-15.55Q392.91-3.52 395.35 0L395.35 0 386.95 0 378.43-13.7ZM410.56-22.51L410.56-22.51Q408.19-22.51 406.85-21.01 405.5-19.51 405.31-16.75L405.31-16.75 415.76-16.75Q415.71-19.51 414.32-21.01 412.93-22.51 410.56-22.51ZM411.61 0.49L411.61 0.49Q405.02 0.49 401.31-3.15 397.59-6.79 397.59-13.45L397.59-13.45Q397.59-20.31 401.02-24.06 404.45-27.81 410.51-27.81L410.51-27.81Q416.3-27.81 419.52-24.51 422.74-21.22 422.74-15.41L422.74-15.41 422.74-11.79 405.14-11.79Q405.26-8.62 407.02-6.84 408.78-5.05 411.95-5.05L411.95-5.05Q414.42-5.05 416.61-5.57 418.81-6.08 421.2-7.2L421.2-7.2 421.2-1.44Q419.25-0.46 417.03 0.01 414.81 0.49 411.61 0.49ZM451.33 0L446.13 0 444.69-3.71 444.49-3.71Q442.61-1.34 440.62-0.43 438.63 0.49 435.43 0.49L435.43 0.49Q431.5 0.49 429.24-1.76 426.99-4 426.99-8.15L426.99-8.15Q426.99-12.5 430.03-14.56 433.07-16.63 439.19-16.85L439.19-16.85 443.93-16.99 443.93-18.19Q443.93-22.34 439.68-22.34L439.68-22.34Q436.41-22.34 431.99-20.36L431.99-20.36 429.53-25.39Q434.24-27.86 439.97-27.86L439.97-27.86Q445.47-27.86 448.4-25.46 451.33-23.07 451.33-18.19L451.33-18.19 451.33 0ZM443.93-10.4L443.93-12.65 441.05-12.55Q437.8-12.45 436.21-11.38 434.63-10.3 434.63-8.11L434.63-8.11Q434.63-4.96 438.24-4.96L438.24-4.96Q440.83-4.96 442.38-6.45 443.93-7.93 443.93-10.4L443.93-10.4ZM467.63 0.49L467.63 0.49Q462.82 0.49 460.08-3.25 457.33-6.98 457.33-13.6L457.33-13.6Q457.33-20.31 460.13-24.06 462.92-27.81 467.83-27.81L467.83-27.81Q472.98-27.81 475.69-23.8L475.69-23.8 475.93-23.8Q475.37-26.86 475.37-29.25L475.37-29.25 475.37-37.99 482.84-37.99 482.84 0 477.13 0 475.69-3.54 475.37-3.54Q472.83 0.49 467.63 0.49ZM470.25-5.44L470.25-5.44Q473.1-5.44 474.43-7.1 475.76-8.76 475.89-12.74L475.89-12.74 475.89-13.55Q475.89-17.94 474.53-19.85 473.18-21.75 470.12-21.75L470.12-21.75Q467.63-21.75 466.25-19.64 464.87-17.53 464.87-13.5L464.87-13.5Q464.87-9.47 466.27-7.46 467.66-5.44 470.25-5.44ZM497.56-0.2L486.72-27.29 494.88-27.29 500.03-11.94Q500.69-9.94 500.93-7.2L500.93-7.2 501.08-7.2Q501.35-9.72 502.13-11.94L502.13-11.94 507.18-27.29 515.16-27.29 503.62 3.49Q502.03 7.76 499.09 9.89 496.15 12.01 492.22 12.01L492.22 12.01Q490.29 12.01 488.43 11.6L488.43 11.6 488.43 5.69Q489.77 6.01 491.36 6.01L491.36 6.01Q493.34 6.01 494.82 4.8 496.29 3.59 497.12 1.15L497.12 1.15 497.56-0.2ZM543.55-5.44L543.55-5.44Q545.51-5.44 548.24-6.3L548.24-6.3 548.24-0.76Q545.46 0.49 541.41 0.49L541.41 0.49Q536.94 0.49 534.9-1.77 532.86-4.03 532.86-8.54L532.86-8.54 532.86-21.7 529.3-21.7 529.3-24.85 533.4-27.34 535.55-33.11 540.31-33.11 540.31-27.29 547.95-27.29 547.95-21.7 540.31-21.7 540.31-8.54Q540.31-6.96 541.2-6.2 542.09-5.44 543.55-5.44ZM559.69-13.7L559.69-13.7Q559.69-9.64 561.02-7.57 562.35-5.49 565.35-5.49L565.35-5.49Q568.33-5.49 569.64-7.56 570.94-9.62 570.94-13.7L570.94-13.7Q570.94-17.75 569.63-19.78 568.31-21.8 565.3-21.8L565.3-21.8Q562.33-21.8 561.01-19.79 559.69-17.77 559.69-13.7ZM578.56-13.7L578.56-13.7Q578.56-7.03 575.05-3.27 571.53 0.49 565.26 0.49L565.26 0.49Q561.32 0.49 558.32-1.23 555.32-2.95 553.71-6.18 552.1-9.4 552.1-13.7L552.1-13.7Q552.1-20.39 555.59-24.1 559.08-27.81 565.4-27.81L565.4-27.81Q569.33-27.81 572.34-26.1 575.34-24.39 576.95-21.19 578.56-17.99 578.56-13.7ZM613.44-29.91L613.44-29.91Q609.17-29.91 606.83-26.7 604.48-23.49 604.48-17.75L604.48-17.75Q604.48-5.81 613.44-5.81L613.44-5.81Q617.2-5.81 622.55-7.69L622.55-7.69 622.55-1.34Q618.16 0.49 612.74 0.49L612.74 0.49Q604.95 0.49 600.82-4.24 596.7-8.96 596.7-17.8L596.7-17.8Q596.7-23.36 598.72-27.55 600.75-31.74 604.54-33.97 608.34-36.21 613.44-36.21L613.44-36.21Q618.64-36.21 623.89-33.69L623.89-33.69 621.45-27.54Q619.45-28.49 617.42-29.2 615.4-29.91 613.44-29.91ZM644.79-27.81L644.79-27.81Q646.3-27.81 647.3-27.59L647.3-27.59 646.74-20.61Q645.84-20.85 644.54-20.85L644.54-20.85Q640.98-20.85 638.99-19.02 637-17.19 637-13.89L637-13.89 637 0 629.55 0 629.55-27.29 635.19-27.29 636.29-22.71 636.66-22.71Q637.93-25 640.09-26.4 642.25-27.81 644.79-27.81ZM658.19-13.7L658.19-13.7Q658.19-9.64 659.52-7.57 660.85-5.49 663.85-5.49L663.85-5.49Q666.83-5.49 668.14-7.56 669.44-9.62 669.44-13.7L669.44-13.7Q669.44-17.75 668.13-19.78 666.81-21.8 663.8-21.8L663.8-21.8Q660.83-21.8 659.51-19.79 658.19-17.77 658.19-13.7ZM677.06-13.7L677.06-13.7Q677.06-7.03 673.55-3.27 670.03 0.49 663.76 0.49L663.76 0.49Q659.83 0.49 656.82-1.23 653.82-2.95 652.21-6.18 650.6-9.4 650.6-13.7L650.6-13.7Q650.6-20.39 654.09-24.1 657.58-27.81 663.9-27.81L663.9-27.81Q667.83-27.81 670.84-26.1 673.84-24.39 675.45-21.19 677.06-17.99 677.06-13.7ZM713.75 0L705.65 0 703.55-9.55 700.72-21.61 700.55-21.61 695.56 0 687.56 0 679.79-27.29 687.22-27.29 690.36-15.21Q691.12-11.96 691.9-6.25L691.9-6.25 692.05-6.25Q692.15-8.11 692.9-12.13L692.9-12.13 693.29-14.21 696.66-27.29 704.87-27.29 708.06-14.21Q708.16-13.67 708.37-12.62 708.58-11.57 708.77-10.39 708.97-9.2 709.13-8.07 709.29-6.93 709.31-6.25L709.31-6.25 709.46-6.25Q709.68-8.01 710.24-11.07 710.8-14.14 711.04-15.21L711.04-15.21 714.31-27.29 721.61-27.29 713.75 0Z" opacity="1" transform="matrix(1,0,0,1,0,0)" fill="#ffffff" class="undefined-text-1" data-fill-palette-color="secondary" id="text-1"></path></svg></g></svg></g></svg></g></svg></g></svg></g></svg></g></svg></g><g><path d="M245.816 0c68.262 0 123.6 55.338 123.6 123.6 0 68.262-55.338 123.6-123.6 123.6-55.836 0-103.025-37.025-118.355-87.863l1.876 0c15.271 49.832 61.643 86.068 116.479 86.068 67.271 0 121.805-54.534 121.805-121.805 0-67.271-54.534-121.805-121.805-121.805-54.835 0-101.208 36.235-116.479 86.068l-1.876 0c15.33-50.838 62.518-87.863 118.355-87.863z" fill="#ffffff" stroke="transparent" data-fill-palette-color="tertiary"></path></g></svg></g><defs></defs></svg><rect width="395.52" height="247.2" fill="none" stroke="none" visibility="hidden"></rect></g></svg></g></svg>